# xmcd
#
# Track frame offsets: 
#        150
#        53775
#        86700
#        113050
#
# Disc length: 2381 seconds
#
# Revision: 1
# Processed by: cddbd v1.5.2PL0 Copyright (c) Steve Scherf et al.
# Submitted via: ExactAudioCopy v0.95b3
#
DISCID=2b094b04
DTITLE=Yes - Live At The Yale Bowl 1971
DYEAR=2005
DGENRE=Rock
TTITLE0=Yours Is No Disgrace
TTITLE1=All Good People
TTITLE2=The Clap/ Classical Gas
TTITLE3=Perpetual Change
EXTD=
EXTT0=
EXTT1=
EXTT2=
EXTT3=
PLAYORDER=
